name Run_400 02_newCOP3_v24.mot
datacolumns 19
datarows 10
range 4.04800000 4.05700000
endheader
                time	   R_ground_force_vx	   R_ground_force_vy	   R_ground_force_vz	   R_ground_force_px	   R_ground_force_py	   R_ground_force_pz	   L_ground_force_vx	   L_ground_force_vy	   L_ground_force_vz	   L_ground_force_px	   L_ground_force_py	   L_ground_force_pz	   R_ground_torque_x	   R_ground_torque_y	   R_ground_torque_z	   L_ground_torque_x	   L_ground_torque_y	   L_ground_torque_z	
          4.04800000	          0.00000000	          0.00000000	          0.00000000	          0.00000000	          0.00000000	          0.00000000	       -196.61245700	       1725.40319800	         -2.25782500	          0.95943200	          0.00000000	         -0.37308000	          0.00000000	          0.00000000	          0.00000000	          0.00000000	         -0.02606400	          0.00000000	
          4.04900000	          0.00000000	          0.00000000	          0.00000000	          0.00000000	          0.00000000	          0.00000000	       -191.26059000	       1741.87756300	         -1.05982200	          0.95633100	          0.00000000	         -0.37291200	          0.00000000	          0.00000000	          0.00000000	         -0.00000000	          0.05360700	         -0.00000000	
          4.05000000	          0.00000000	          0.00000000	          0.00000000	          0.00000000	          0.00000000	          0.00000000	       -185.81509400	       1757.49768100	          0.03322700	          0.95326900	          0.00000000	         -0.37278400	          0.00000000	          0.00000000	          0.00000000	         -0.00000000	          0.12867500	         -0.00000000	
          4.05100000	          0.00000000	          0.00000000	          0.00000000	          0.00000000	          0.00000000	          0.00000000	       -180.32035800	       1772.19921900	          1.00638800	          0.95025000	          0.00000000	         -0.37269900	          0.00000000	          0.00000000	          0.00000000	         -0.00000000	          0.19962800	         -0.00000000	
          4.05200000	          0.00000000	          0.00000000	          0.00000000	          0.00000000	          0.00000000	          0.00000000	       -174.81822200	       1785.92944300	          1.84788200	          0.94727400	          0.00000000	         -0.37265700	          0.00000000	          0.00000000	          0.00000000	         -0.00000000	          0.26696700	         -0.00000000	
          4.05300000	          0.00000000	          0.00000000	          0.00000000	          0.00000000	          0.00000000	          0.00000000	       -169.34706100	       1798.64685100	          2.54914700	          0.94434400	          0.00000000	         -0.37265700	          0.00000000	          0.00000000	          0.00000000	         -0.00000000	          0.33120200	         -0.00000000	
          4.05400000	          0.00000000	          0.00000000	          0.00000000	          0.00000000	          0.00000000	          0.00000000	       -163.94082600	       1810.32128900	          3.10481800	          0.94146000	          0.00000000	         -0.37269800	          0.00000000	          0.00000000	          0.00000000	         -0.00000000	          0.39284200	         -0.00000000	
          4.05500000	          0.00000000	          0.00000000	          0.00000000	          0.00000000	          0.00000000	          0.00000000	       -158.62840300	       1820.93408200	          3.51263900	          0.93862100	          0.00000000	         -0.37277600	          0.00000000	          0.00000000	          0.00000000	         -0.00000000	          0.45239800	         -0.00000000	
          4.05600000	          0.00000000	          0.00000000	          0.00000000	          0.00000000	          0.00000000	          0.00000000	       -153.43290700	       1830.47692900	          3.77330400	          0.93582500	          0.00000000	         -0.37289100	          0.00000000	          0.00000000	          0.00000000	         -0.00000000	          0.51037500	         -0.00000000	
          4.05700000	          0.00000000	          0.00000000	          0.00000000	          0.00000000	          0.00000000	          0.00000000	       -148.37121600	       1838.95214800	          3.89024500	          0.93307100	          0.00000000	         -0.37303800	          0.00000000	          0.00000000	          0.00000000	         -0.00000000	          0.56726800	         -0.00000000	
